<svg xmlns="http://www.w3.org/2000/svg" width="129" height="128" fill="none"><path fill="#F0E3CA" fill-rule="evenodd" d="M17 0C7.611 0 0 7.611 0 17v94c0 9.389 7.611 17 17 17h94.5c9.388 0 17-7.611 17-17V17c0-9.389-7.612-17-17-17H17ZM0 44.02h27.553c1.973 4.8 6.694 8.179 12.205 8.179a13.15 13.15 0 0 0 5.063-1.007L78.328 84.7a13.152 13.152 0 0 0-.997 5.041c0 7.285 5.905 13.191 13.19 13.191 7.285 0 13.19-5.906 13.19-13.19 0-7.285-5.905-13.19-13.19-13.19-1.495 0-2.931.248-4.27.706L53.012 44.019h25.365c1.973 4.8 6.695 8.18 12.205 8.18 7.285 0 13.191-5.905 13.191-13.19 0-7.285-5.906-13.19-13.19-13.19-5.183 0-9.667 2.988-11.824 7.336H51.581c-2.156-4.348-6.64-7.337-11.823-7.337-5.182 0-9.667 2.99-11.823 7.337H0V44.02Z" clip-rule="evenodd"/></svg>