<svg xmlns="http://www.w3.org/2000/svg" width="128" height="129" fill="none"><path fill="#FFDF00" fill-rule="evenodd" d="M0 .271h128v128H0v-128Zm69.459 58.667H57.85v42.541c0 1.255-1.067 6.4-6.463 6.149-5.396-.251-7.843-6.274-7.843-6.274l-9.6 5.898s5.334 10.917 16.063 10.917c10.73 0 19.45-4.015 19.45-16.69V58.938Zm44.925 8.91c-4.034-7.016-10.602-9.93-17.443-9.537-6.84.392-16.816 2.958-17.067 16.502-.25 13.543 16.252 18.258 16.252 18.258 6.878 2.894 10.112 4.607 9.913 8.534-.744 4.823-3.953 6.086-8.094 6.086s-8.255-1.859-12.047-7.278l-9.537 5.521c5.101 8.071 11.106 12.361 21.584 12.298 10.479-.063 20.455-5.459 20.141-16.627-.313-11.169-5.71-14.111-16.627-19.2-7.196-2.823-9.35-4.079-9.726-7.592-.376-3.514 2.07-6.15 5.585-6.15 3.513 0 6.054 1.884 7.843 5.208l9.223-6.023Z" clip-rule="evenodd"/></svg>