<svg xmlns="http://www.w3.org/2000/svg" width="33" height="33" fill="none"><g clip-path="url(#a)"><path fill="#F0E3CA" d="M16.5 1.1c-8.839 0-16 7.167-16 16 0 7.073 4.584 13.068 10.937 15.183.803.151 1.093-.344 1.093-.772 0-.38-.009-1.385-.015-2.719-4.453.964-5.391-2.15-5.391-2.15-.729-1.845-1.781-2.34-1.781-2.34-1.448-.989.115-.968.115-.968 1.604.11 2.448 1.645 2.448 1.645 1.427 2.448 3.744 1.74 4.661 1.328.14-1.03.557-1.74 1.011-2.135-3.552-.4-7.287-1.776-7.287-7.907 0-1.75.62-3.177 1.645-4.297-.177-.4-.719-2.03.141-4.235 0 0 1.339-.427 4.4 1.641a15.436 15.436 0 0 1 4-.54 15.47 15.47 0 0 1 4 .54c3.043-2.068 4.381-1.64 4.381-1.64.859 2.203.317 3.832.161 4.234 1.015 1.12 1.635 2.547 1.635 4.297 0 6.145-3.74 7.5-7.296 7.891.556.48 1.077 1.464 1.077 2.96 0 2.14-.02 3.863-.02 4.384 0 .416.28.916 1.104.755 6.4-2.093 10.979-8.093 10.979-15.156 0-8.833-7.161-16-16-16l.002.001Z"/></g><defs><clipPath id="a"><path fill="#fff" d="M.5.704h32v32H.5z"/></clipPath></defs></svg>