<svg xmlns="http://www.w3.org/2000/svg" width="128" height="128" fill="none"><path fill="#F0E3CA" fill-rule="evenodd" d="M0 0h128v128H0V0Zm69.459 58.667H57.85v42.541c0 1.255-1.067 6.4-6.463 6.149-5.396-.251-7.843-6.275-7.843-6.275l-9.6 5.898s5.334 10.918 16.063 10.918c10.73 0 19.45-4.016 19.45-16.69V58.667Zm44.925 8.91c-4.034-7.017-10.602-9.93-17.443-9.538-6.84.393-16.816 2.959-17.067 16.502C79.624 88.085 96.126 92.8 96.126 92.8c6.878 2.893 10.112 4.606 9.913 8.533-.744 4.824-3.953 6.087-8.094 6.087s-8.255-1.859-12.047-7.279l-9.537 5.522c5.101 8.071 11.106 12.36 21.584 12.298 10.479-.063 20.455-5.459 20.141-16.628-.313-11.168-5.71-14.11-16.627-19.2-7.196-2.823-9.35-4.078-9.726-7.592-.376-3.513 2.07-6.149 5.585-6.149 3.513 0 6.054 1.883 7.843 5.208l9.223-6.023Z" clip-rule="evenodd"/></svg>